REM DIRINDEX 1\2,1\3,1\4,1\5
REM DIRNAME cjc004,folder01,folder02,folder03,folder04
TITLE ""
FILE "1Q_t_2051-2060.mp3" MP3
  TRACK 01 AUDIO
    TITLE "3:cjc004_7061"
    INDEX 01 00:00:00
  TRACK 02 AUDIO
    TITLE "0:"
    INDEX 01 00:00:64
  TRACK 03 AUDIO
    TITLE "4:cjc004_7062"
    INDEX 01 00:01:13
  TRACK 04 AUDIO
    TITLE "0:"
    INDEX 01 00:02:57
  TRACK 05 AUDIO
    TITLE "5:cjc004_7063"
    INDEX 01 00:03:06
  TRACK 06 AUDIO
    TITLE "0:"
    INDEX 01 00:07:37
  TRACK 07 AUDIO
    TITLE "3:cjc004_7064"
    INDEX 01 00:08:11
  TRACK 08 AUDIO
    TITLE "0:"
    INDEX 01 00:09:26
  TRACK 09 AUDIO
    TITLE "4:cjc004_7065"
    INDEX 01 00:09:51
  TRACK 10 AUDIO
    TITLE "0:"
    INDEX 01 00:10:68
  TRACK 11 AUDIO
    TITLE "5:cjc004_7066"
    INDEX 01 00:11:13
  TRACK 12 AUDIO
    TITLE "0:"
    INDEX 01 00:15:44
  TRACK 13 AUDIO
    TITLE "3:cjc004_7067"
    INDEX 01 00:16:20
  TRACK 14 AUDIO
    TITLE "0:"
    INDEX 01 00:17:23
  TRACK 15 AUDIO
    TITLE "4:cjc004_7068"
    INDEX 01 00:17:53
  TRACK 16 AUDIO
    TITLE "0:"
    INDEX 01 00:18:68
  TRACK 17 AUDIO
    TITLE "5:cjc004_7069"
    INDEX 01 00:19:15
  TRACK 18 AUDIO
    TITLE "0:"
    INDEX 01 00:23:69
  TRACK 19 AUDIO
    TITLE "3:cjc004_7070"
    INDEX 01 00:24:45
  TRACK 20 AUDIO
    TITLE "0:"
    INDEX 01 00:25:54
  TRACK 21 AUDIO
    TITLE "4:cjc004_7071"
    INDEX 01 00:26:11
  TRACK 22 AUDIO
    TITLE "0:"
    INDEX 01 00:27:36
  TRACK 23 AUDIO
    TITLE "5:cjc004_7072"
    INDEX 01 00:27:63
  TRACK 24 AUDIO
    TITLE "0:"
    INDEX 01 00:31:61
  TRACK 25 AUDIO
    TITLE "3:cjc004_7073"
    INDEX 01 00:32:41
  TRACK 26 AUDIO
    TITLE "0:"
    INDEX 01 00:33:66
  TRACK 27 AUDIO
    TITLE "4:cjc004_7074"
    INDEX 01 00:34:22
  TRACK 28 AUDIO
    TITLE "0:"
    INDEX 01 00:35:70
  TRACK 29 AUDIO
    TITLE "5:cjc004_7075"
    INDEX 01 00:36:29
  TRACK 30 AUDIO
    TITLE "0:"
    INDEX 01 00:41:40
  TRACK 31 AUDIO
    TITLE "3:cjc004_7076"
    INDEX 01 00:42:18
  TRACK 32 AUDIO
    TITLE "0:"
    INDEX 01 00:43:44
  TRACK 33 AUDIO
    TITLE "4:cjc004_7077"
    INDEX 01 00:43:68
  TRACK 34 AUDIO
    TITLE "0:"
    INDEX 01 00:45:06
  TRACK 35 AUDIO
    TITLE "5:cjc004_7078"
    INDEX 01 00:45:26
  TRACK 36 AUDIO
    TITLE "0:"
    INDEX 01 00:50:13
  TRACK 37 AUDIO
    TITLE "3:cjc004_7079"
    INDEX 01 00:50:64
  TRACK 38 AUDIO
    TITLE "0:"
    INDEX 01 00:52:14
  TRACK 39 AUDIO
    TITLE "4:cjc004_7080"
    INDEX 01 00:52:39
  TRACK 40 AUDIO
    TITLE "0:"
    INDEX 01 00:54:25
  TRACK 41 AUDIO
    TITLE "5:cjc004_7081"
    INDEX 01 00:54:46
  TRACK 42 AUDIO
    TITLE "0:"
    INDEX 01 00:58:58
  TRACK 43 AUDIO
    TITLE "3:cjc004_7082"
    INDEX 01 00:59:30
  TRACK 44 AUDIO
    TITLE "0:"
    INDEX 01 01:00:53
  TRACK 45 AUDIO
    TITLE "4:cjc004_7083"
    INDEX 01 01:01:03
  TRACK 46 AUDIO
    TITLE "0:"
    INDEX 01 01:02:18
  TRACK 47 AUDIO
    TITLE "5:cjc004_7084"
    INDEX 01 01:02:46
  TRACK 48 AUDIO
    TITLE "0:"
    INDEX 01 01:07:19
  TRACK 49 AUDIO
    TITLE "3:cjc004_7085"
    INDEX 01 01:07:70
  TRACK 50 AUDIO
    TITLE "0:"
    INDEX 01 01:09:05
  TRACK 51 AUDIO
    TITLE "4:cjc004_7086"
    INDEX 01 01:09:30
  TRACK 52 AUDIO
    TITLE "0:"
    INDEX 01 01:10:18
  TRACK 53 AUDIO
    TITLE "5:cjc004_7087"
    INDEX 01 01:10:41
  TRACK 54 AUDIO
    TITLE "0:"
    INDEX 01 01:14:61
  TRACK 55 AUDIO
    TITLE "3:cjc004_7088"
    INDEX 01 01:15:33
  TRACK 56 AUDIO
    TITLE "0:"
    INDEX 01 01:16:38
  TRACK 57 AUDIO
    TITLE "4:cjc004_7089"
    INDEX 01 01:16:63
  TRACK 58 AUDIO
    TITLE "0:"
    INDEX 01 01:18:17
  TRACK 59 AUDIO
    TITLE "5:cjc004_7090"
    INDEX 01 01:18:39
  TRACK 60 AUDIO
    TITLE "0:"
    INDEX 01 01:23:38
